<?xml version="1.0" encoding="UTF-8"?>
<svg width="875" height="900" version="1.1" viewBox="325 70 50 430" xmlns="http://www.w3.org/2000/svg" xmlns:xlink="http://www.w3.org/1999/xlink">
 <g>
  <path d="m523.1 491.13h13.301c3.0938 0 5.6016-2.5039 5.6016-5.6016 0-3.0938-2.5039-5.6016-5.6016-5.6016h-13.301c-3.0938 0-5.6016 2.5039-5.6016 5.6016s2.5039 5.6016 5.6016 5.6016z"/>
  <path d="m163.24 491.13h337.38c3.0938 0 5.6016-2.5039 5.6016-5.6016 0-3.0938-2.5039-5.6016-5.6016-5.6016h-7.5508c6.7266-5.2148 11.555-12.418 13.75-20.797 2.6523-10.129 1.1719-20.66-4.1602-29.668l-24.855-41.977c-0.13672-0.23047-0.35547-0.37109-0.51953-0.57812v-35.477c0-15.09-12.273-27.359-27.359-27.359h-85.434v-8.5234c37.312-11.789 65.418-44.262 71.062-83.883h1.0391c13.766 0 24.965-11.199 24.965-24.965 0-13.73-11.141-24.895-24.852-24.957v-68.316c4.6289-6.1602 8.6523-12.902 11.844-20.234l6.0977-13.988c0.75391-1.7266 0.58594-3.7227-0.44922-5.3047-1.0391-1.582-2.8008-2.5312-4.6875-2.5312h-166.98c-28.852 0-52.324 23.473-52.324 52.324v58.047c-13.715 0.066406-24.852 11.23-24.852 24.957 0 13.766 11.199 24.965 24.969 24.965h1.0352c5.6406 39.625 33.754 72.098 71.066 83.883v8.5234l-85.254 0.003907c-15.09 0-27.359 12.273-27.359 27.359v37.375l-24.074 40.656c-5.332 9.0078-6.8125 19.539-4.1562 29.668 2.1953 8.3789 7.0234 15.586 13.75 20.797h-12.09c-3.0938 0-5.6016 2.5039-5.6016 5.6016s2.5039 5.6016 5.6016 5.6016zm329.77-55.957c3.7969 6.4102 4.8516 13.914 2.957 21.121-1.8867 7.207-6.4766 13.23-12.93 16.953l-5.7695 3.332 0.003907-67.988zm-86.492-243.72v16.953c0 6.1211-4.9766 11.102-11.098 11.102h-35.07c-6.1211 0-11.102-4.9805-11.102-11.102v-16.953c0-6.1211 4.9805-11.098 11.102-11.098h35.07c2.3438 0 4.5117 0.73828 6.3086 1.9844 1.1914 2.7578 2.7578 5.3164 4.6367 7.6094 0.070312 0.49609 0.15234 0.98828 0.15234 1.5039zm-68.469 0v1.9961c-3.0391-0.64453-6.1602-0.64453-9.1992 0v-1.9961c0-12.293-10.004-22.297-22.301-22.297h-35.066c-1.2617 0-2.4844 0.17188-3.6914 0.375v-7.7461c0-5.6836 2.4922-11.035 6.8477-14.688 4.3516-3.6523 10.074-5.1797 15.656-4.1992l49.531 8.7109c20.75 3.6484 41.289 0.59375 59.281-7.7578v25.68c-1.207-0.20312-2.4258-0.375-3.6875-0.375h-35.07c-12.297 0-22.301 10-22.301 22.297zm-77.668 0c0-0.51562 0.082032-1.0039 0.15234-1.5 1.8789-2.293 3.4453-4.8477 4.6367-7.6055 1.7969-1.2461 3.9648-1.9883 6.3125-1.9883h35.066c6.1211 0 11.102 4.9766 11.102 11.098v16.953c0 6.1211-4.9805 11.102-11.102 11.102h-35.066c-6.1211 0-11.102-4.9805-11.102-11.102zm189.97 15.246c0 7.5508-6.1133 13.703-13.648 13.766v-27.535c7.5352 0.058594 13.648 6.2148 13.648 13.77zm-220.15 13.766c-7.5352-0.066406-13.648-6.2109-13.648-13.766 0-7.5508 6.1133-13.703 13.648-13.77zm11.199-3.3867v-15.922c2.7305-0.48438 5.3359-1.3164 7.7812-2.4492v9.6992c0 12.301 10.004 22.301 22.301 22.301h35.066c7.582 0 14.273-3.8203 18.305-9.6172-1.082 2.8594-2.4531 5.8516-4.2344 8.8594-3.0352 5.125-1.8164 11.617 2.8555 15.105 2.4062 1.7891 6.6406 3.8164 13 3.2422 1.207-0.10938 2.4297 0.13672 3.5703 0.69922 0.79688 0.39453 1.6406 0.57812 2.4727 0.57812 2.0664 0 4.0508-1.1445 5.0273-3.1211 1.3711-2.7734 0.23047-6.1289-2.543-7.4961-2.9688-1.4648-6.2617-2.1055-9.4844-1.8164-2.3281 0.1875-4.1328-0.16016-5.2617-1.4805 4.7812-8.0742 7.1836-16.086 8.3945-22.285 2.2695 9.9102 11.113 17.336 21.699 17.336h35.07c12.293 0 22.297-10.004 22.297-22.301v-9.6992c2.4453 1.1328 5.0508 1.9648 7.7812 2.4492v15.922c0 40.969-26.918 75.742-63.984 87.641l-4.0938 1.1133c-3.4883 0.94531-6.9531 1.6484-10.41 2.1836-0.73438 0.10937-1.457 0.24609-2.1953 0.33594-1.2852 0.16797-2.5703 0.28516-3.8555 0.39844-2.1484 0.17578-4.3125 0.30469-6.5 0.32813-0.66797 0.007812-1.3398 0.007812-2.0117 0-2.1953-0.023438-4.3633-0.15625-6.5156-0.33203-1.2812-0.10938-2.5625-0.23047-3.8477-0.39453-0.73828-0.089844-1.4648-0.22656-2.1992-0.33594-3.4531-0.53906-6.9141-1.2383-10.398-2.1836l-4.1602-1.1328c-37.035-11.922-63.926-46.676-63.926-87.625zm72.219 101.29c6.4219 1.2539 13.043 1.957 19.828 1.957 6.7852 0 13.41-0.69922 19.836-1.957v5.6953h-39.664zm-112.61 33.059c0-8.9102 7.25-16.16 16.16-16.16h232.75c8.9102 0 16.16 7.25 16.16 16.16v128.5h-265.07zm-25.637 83.742 14.438-24.383v65.035l-4.4609-2.5781c-6.4531-3.7266-11.047-9.7461-12.934-16.953-1.8945-7.207-0.83594-14.711 2.957-21.121z"/>
  <path d="m333.29 284.28c25.227 0 30.75-17.969 30.977-18.734 0.85938-2.9375-0.81641-5.9727-3.7422-6.8672-2.957-0.92578-6.043 0.75391-6.9883 3.6602-0.14062 0.4375-3.6914 10.746-20.246 10.746-16.117 0-19.523-9.4727-19.879-10.621-0.83203-2.9492-3.8711-4.6758-6.8398-3.8867-2.9844 0.80469-4.7578 3.8711-3.9531 6.8633 0.20312 0.76172 5.3516 18.84 30.672 18.84z"/>
  <path d="m329.02 440.74c15.438 0 28-12.562 28-28s-12.562-28-28-28-28 12.562-28 28 12.562 28 28 28zm0-44.801c9.2656 0 16.801 7.5352 16.801 16.801 0 9.2656-7.5352 16.801-16.801 16.801s-16.801-7.5352-16.801-16.801c0-9.2617 7.5391-16.801 16.801-16.801z"/>
 </g>
</svg>
